<svg width="75" height="74" viewBox="0 0 75 74" fill="none" xmlns="http://www.w3.org/2000/svg">
<rect y="19" width="55" height="55" fill="#E70101"/>
<rect x="4" y="23" width="47" height="46" rx="4" fill="white"/>
<path d="M55 19L75 0V55L55 74V19Z" fill="#9C2C2C"/>
<path d="M59 22.6892C59 21.2937 59.5832 19.9617 60.6086 19.0151L71.1609 9.27459C71.4811 8.97895 72 9.20611 72 9.64199V50.8225C72 52.2112 71.4225 53.5373 70.4058 54.4832L59.8406 64.3126C59.5208 64.6101 59 64.3833 59 63.9465V22.6892Z" fill="#8C8C8C"/>
<path d="M20 0H75L55 19H0L20 0Z" fill="#FB7575"/>
<path d="M21.0478 4.3984C21.9795 3.50123 23.2226 3 24.516 3H66.6099C67.0786 3 67.2897 3.58691 66.9284 3.88545L53.6531 14.8545C52.7569 15.5949 51.6307 16 50.4682 16H10.2401C9.79005 16 9.56909 15.452 9.89324 15.1398L21.0478 4.3984Z" fill="#DFDFDF"/>
<path d="M32.3333 57.7407H31.3333V58.7407V62V63H32.3333H43H44V62V58.7407V57.7407H43H40.4444V34.2593H43H44V33.2593V30V29H43H32.3333H31.3333V30V33.2593V34.2593H32.3333H34.8889V42.6296H19.1111V34.2593H21.6667H22.6667V33.2593V30V29H21.6667H11H10V30V33.2593V34.2593H11H13.5556V57.7407H11H10V58.7407V62V63H11H21.6667H22.6667V62V58.7407V57.7407H21.6667H19.1111V47.8889H34.8889V57.7407H32.3333Z" fill="#E70101" stroke="black" stroke-width="2"/>
</svg>
